<?xml version="1.0" standalone="no"?>
<!DOCTYPE svg PUBLIC "-//W3C//DTD SVG 20010904//EN"
 "http://www.w3.org/TR/2001/REC-SVG-20010904/DTD/svg10.dtd">
<svg version="1.0" xmlns="http://www.w3.org/2000/svg"
 width="400.000000pt" height="400.000000pt" viewBox="0 0 400.000000 400.000000"
 preserveAspectRatio="xMidYMid meet">
<metadata>
Created by potrace 1.14, written by Peter Selinger 2001-2017
</metadata>
<g transform="translate(0.000000,400.000000) scale(0.100000,-0.100000)"
fill="#000000" stroke="none">
<path d="M1820 3403 c-76 -12 -205 -83 -256 -142 -40 -44 -44 -50 -44 -59 0
-4 -9 -18 -20 -30 -12 -12 -18 -22 -15 -22 3 0 0 -10 -6 -22 -14 -25 -38 -130
-39 -165 0 -23 2 -23 129 -23 l129 0 7 36 c9 48 26 85 37 78 5 -3 8 -2 7 3 -4
22 2 35 15 30 10 -4 13 -1 10 7 -3 7 2 16 11 20 11 4 14 2 10 -7 -4 -6 2 -1
13 13 17 21 31 25 92 28 67 4 74 3 120 -29 90 -62 123 -163 81 -254 -32 -72
-105 -130 -154 -123 -43 5 -47 -6 -47 -138 l0 -124 38 0 c20 1 57 5 82 11 25
6 53 11 62 12 9 1 15 3 13 6 -3 2 17 14 43 27 89 43 175 145 213 255 17 49 23
86 22 159 0 83 -4 104 -31 170 -18 42 -51 97 -77 126 -24 28 -41 55 -37 59 4
5 1 5 -5 1 -7 -4 -13 -2 -13 4 0 6 -4 8 -10 5 -5 -3 -10 -2 -10 3 0 13 -117
69 -170 81 -44 10 -149 12 -200 4z"/>
<path d="M1454 2725 c-3 -6 -3 -174 -2 -375 l3 -365 133 -3 132 -3 0 378 0
378 -131 0 c-79 0 -133 -4 -135 -10z"/>
<path d="M1920 2385 c0 -8 11 -38 25 -67 25 -55 73 -166 141 -325 21 -51 43
-93 47 -93 4 0 23 32 42 71 l33 70 -38 92 c-21 51 -48 113 -59 140 -11 26 -20
49 -21 52 0 3 -6 21 -14 40 l-15 35 -70 0 c-56 0 -71 -3 -71 -15z"/>
<path d="M2222 2377 c-30 -32 -30 -89 0 -117 18 -16 33 -20 69 -18 26 2 46 5
44 7 -2 2 3 17 11 33 42 81 -62 161 -124 95z"/>
<path d="M1646 1903 c-3 -4 -6 -33 -6 -65 0 -42 4 -58 14 -58 22 0 66 -40 66
-61 0 -17 7 -19 65 -19 59 0 65 2 65 20 0 53 -56 137 -110 164 -31 16 -86 27
-94 19z"/>
<path d="M1908 1689 c-2 -66 -2 -121 -1 -122 1 -1 167 0 370 3 l368 5 0 115 0
115 -367 3 -367 2 -3 -121z"/>
<path d="M1455 1712 c-9 -10 11 -81 32 -115 31 -49 74 -74 139 -83 57 -7 94
-32 94 -64 0 -18 7 -20 59 -20 33 0 63 5 66 11 12 19 -16 94 -46 127 -39 41
-72 58 -133 67 -49 8 -86 33 -86 59 0 10 -17 15 -61 18 -33 1 -62 1 -64 0z"/>
<path d="M1460 1425 c0 -37 33 -106 64 -132 30 -26 90 -53 117 -53 17 0 19 8
19 63 0 60 -2 63 -32 78 -19 9 -35 26 -38 40 -5 22 -12 24 -68 27 -61 3 -62 2
-62 -23z"/>
<path d="M2215 1315 c-63 -16 -125 -47 -149 -74 -15 -16 -22 -18 -33 -10 -11
10 -12 8 -7 -6 4 -9 2 -20 -3 -24 -5 -3 -23 -25 -40 -48 -17 -23 -34 -39 -38
-35 -5 4 -5 2 -2 -4 4 -7 -1 -29 -10 -50 -14 -32 -18 -80 -21 -267 l-4 -229
119 4 118 3 5 200 c5 202 7 211 44 253 47 51 69 57 266 62 l185 5 0 115 0 115
-190 2 c-128 1 -206 -3 -240 -12z"/>
</g>
</svg>
